<?xml version="1.0" encoding="UTF-8"?>
<svg width="567px" height="310px" viewBox="0 0 567 310" version="1.1" xmlns="http://www.w3.org/2000/svg" xmlns:xlink="http://www.w3.org/1999/xlink">
    <!-- Generator: Sketch 50.2 (55047) - http://www.bohemiancoding.com/sketch -->
    <title>KVK_logo_OP_svg</title>
    <desc>Created with Sketch.</desc>
    <defs>
        <polygon id="path-1" points="0 71 566.704 71 566.704 225.125 0 225.125"></polygon>
    </defs>
    <g id="KVK_logo_OP_svg" stroke="none" stroke-width="1" fill="none" fill-rule="evenodd">
        <mask id="mask-2" fill="white">
            <use xlink:href="#path-1"></use>
        </mask>
        <g id="Clip-2"></g>
        <path d="M496.636,225.174 L566.923,225.174 L509.401,138.845 L562.523,71 L494.675,71 L447.678,136.046 L447.678,71 L386,71 L386,225.164 L447.587,225.174 L447.587,170.608 C447.587,169.277 447.597,165.388 448.598,163.638 C450.165,160.9 453.749,159.904 456.337,161.465 C457.485,162.158 458.397,163.341 459.754,165.513 L496.636,225.174" id="Fill-1" fill="#043054" mask="url(#mask-2)"></path>
        <polyline id="Fill-3" fill="#043054" mask="url(#mask-2)" points="186 71.013 251.016 71.012 277.748 156.983 278.162 156.983 305.127 71 367.494 71 310.284 225.158 240.646 225.158 186 71.013"></polyline>
        <path d="M110.636,225.174 L180.923,225.174 L123.402,138.845 L176.524,71 L108.675,71 L61.678,136.046 L61.678,71 L0,71 L0,225.164 L61.587,225.174 L61.587,170.607 C61.587,169.275 61.598,165.388 62.599,163.638 C64.165,160.899 67.75,159.903 70.337,161.465 C71.486,162.158 72.397,163.341 73.754,165.512 L110.636,225.174" id="Fill-4" fill="#043054" mask="url(#mask-2)"></path>
    </g>
</svg>